<?xml version="1.0" encoding="UTF-8"?><svg width="24px" height="24px" viewBox="0 0 24 24" stroke-width="1" fill="none" xmlns="http://www.w3.org/2000/svg" color="#000000"><path d="M21.04 12.283l.599 4.19a2 2 0 01-2.179 2.273L12.2 18.02a2.005 2.005 0 00-.398 0l-7.261.726a2 2 0 01-2.179-2.273l.599-4.19a2 2 0 000-.566l-.599-4.19A2 2 0 014.54 5.254l7.261.726a2 2 0 00.398 0l7.261-.726a2 2 0 012.179 2.273l-.599 4.19a2 2 0 000 .566zM21 6l-4 3M7 15l-4 3" stroke="#000000" stroke-width="1" stroke-linecap="round" stroke-linejoin="round"></path></svg>